<?xml version="1.0" encoding="UTF-8" standalone="no"?>
<!DOCTYPE svg PUBLIC "-//W3C//DTD SVG 1.1//EN" "http://www.w3.org/Graphics/SVG/1.1/DTD/svg11.dtd">
<svg width="3036pt" height="1679pt" viewBox="0.00 0.00 3036.00 1679.00" xmlns="http://www.w3.org/2000/svg" xmlns:xlink="http://www.w3.org/1999/xlink">
<g id="graph0" class="graph" transform="scale(1 1) rotate(0) translate(4 1675.21)">
<title>SQLiteLayout</title>
<!-- Person -->
<g id="Person" class="node">
<title>Person</title>
<ellipse fill="none" stroke="black" stroke-width="0" cx="2813.02" cy="-1009.8" rx="214.77" ry="361.19"/>
<polygon fill="#3b82f6" stroke="none" points="2663.15,-1190.8 2663.15,-1263.2 2962.89,-1263.2 2962.89,-1190.8 2663.15,-1190.8"/>
<polygon fill="none" stroke="#334155" points="2663.15,-1190.8 2663.15,-1263.2 2962.89,-1263.2 2962.89,-1190.8 2663.15,-1190.8"/>
<text xml:space="preserve" text-anchor="start" x="2741.83" y="-1215.4" font-family="Helvetica,sans-Serif" font-weight="bold" font-size="42.00" fill="#ffffff">Person</text>
<polygon fill="#334155" stroke="none" points="2663.15,-1118.4 2663.15,-1190.8 2962.89,-1190.8 2962.89,-1118.4 2663.15,-1118.4"/>
<polygon fill="none" stroke="#334155" points="2663.15,-1118.4 2663.15,-1190.8 2962.89,-1190.8 2962.89,-1118.4 2663.15,-1118.4"/>
<text xml:space="preserve" text-anchor="start" x="2674.15" y="-1143" font-family="Helvetica,sans-Serif" font-weight="bold" font-size="42.00" fill="#ffffff">persNr</text>
<text xml:space="preserve" text-anchor="start" x="2809.55" y="-1143" font-family="Helvetica,sans-Serif" font-weight="bold" font-size="42.00" fill="transparent"> &#160;&#160;</text>
<text xml:space="preserve" text-anchor="start" x="2844.55" y="-1143" font-family="Helvetica,sans-Serif" font-style="italic" font-size="42.00" fill="#ffffff">TEXT</text>
<polygon fill="#334155" stroke="none" points="2663.15,-1046 2663.15,-1118.4 2962.89,-1118.4 2962.89,-1046 2663.15,-1046"/>
<polygon fill="none" stroke="#334155" points="2663.15,-1046 2663.15,-1118.4 2962.89,-1118.4 2962.89,-1046 2663.15,-1046"/>
<text xml:space="preserve" text-anchor="start" x="2674.15" y="-1070.6" font-family="Helvetica,sans-Serif" font-size="42.00" fill="#ffffff">name</text>
<text xml:space="preserve" text-anchor="start" x="2779.22" y="-1070.6" font-family="Helvetica,sans-Serif" font-size="42.00" fill="transparent"> &#160;&#160;&#160;&#160;</text>
<text xml:space="preserve" text-anchor="start" x="2844.55" y="-1070.6" font-family="Helvetica,sans-Serif" font-style="italic" font-size="42.00" fill="#ffffff">TEXT</text>
<polygon fill="#334155" stroke="none" points="2663.15,-973.6 2663.15,-1046 2962.89,-1046 2962.89,-973.6 2663.15,-973.6"/>
<polygon fill="none" stroke="#334155" points="2663.15,-973.6 2663.15,-1046 2962.89,-1046 2962.89,-973.6 2663.15,-973.6"/>
<text xml:space="preserve" text-anchor="start" x="2674.15" y="-998.2" font-family="Helvetica,sans-Serif" font-size="42.00" fill="#ffffff">strasse</text>
<text xml:space="preserve" text-anchor="start" x="2809.53" y="-998.2" font-family="Helvetica,sans-Serif" font-size="42.00" fill="transparent"> &#160;</text>
<text xml:space="preserve" text-anchor="start" x="2844.55" y="-998.2" font-family="Helvetica,sans-Serif" font-style="italic" font-size="42.00" fill="#ffffff">TEXT</text>
<polygon fill="#334155" stroke="none" points="2663.15,-901.2 2663.15,-973.6 2962.89,-973.6 2962.89,-901.2 2663.15,-901.2"/>
<polygon fill="none" stroke="#334155" points="2663.15,-901.2 2663.15,-973.6 2962.89,-973.6 2962.89,-901.2 2663.15,-901.2"/>
<text xml:space="preserve" text-anchor="start" x="2674.15" y="-925.8" font-family="Helvetica,sans-Serif" font-size="42.00" fill="#ffffff">plz</text>
<text xml:space="preserve" text-anchor="start" x="2727.84" y="-925.8" font-family="Helvetica,sans-Serif" font-size="42.00" fill="transparent"> &#160;&#160;&#160;&#160;&#160;</text>
<text xml:space="preserve" text-anchor="start" x="2844.55" y="-925.8" font-family="Helvetica,sans-Serif" font-style="italic" font-size="42.00" fill="#ffffff">TEXT</text>
<polygon fill="#334155" stroke="none" points="2663.15,-828.8 2663.15,-901.2 2962.89,-901.2 2962.89,-828.8 2663.15,-828.8"/>
<polygon fill="none" stroke="#334155" points="2663.15,-828.8 2663.15,-901.2 2962.89,-901.2 2962.89,-828.8 2663.15,-828.8"/>
<text xml:space="preserve" text-anchor="start" x="2674.15" y="-853.4" font-family="Helvetica,sans-Serif" font-size="42.00" fill="#ffffff">ort</text>
<text xml:space="preserve" text-anchor="start" x="2723.17" y="-853.4" font-family="Helvetica,sans-Serif" font-size="42.00" fill="transparent"> &#160;&#160;&#160;&#160;&#160;</text>
<text xml:space="preserve" text-anchor="start" x="2844.55" y="-853.4" font-family="Helvetica,sans-Serif" font-style="italic" font-size="42.00" fill="#ffffff">TEXT</text>
<polygon fill="#334155" stroke="none" points="2663.15,-756.4 2663.15,-828.8 2962.89,-828.8 2962.89,-756.4 2663.15,-756.4"/>
<polygon fill="none" stroke="#334155" points="2663.15,-756.4 2663.15,-828.8 2962.89,-828.8 2962.89,-756.4 2663.15,-756.4"/>
<text xml:space="preserve" text-anchor="start" x="2674.15" y="-781" font-family="Helvetica,sans-Serif" font-size="42.00" fill="#ffffff">telefon</text>
<text xml:space="preserve" text-anchor="start" x="2800.26" y="-781" font-family="Helvetica,sans-Serif" font-size="42.00" fill="transparent"> &#160;</text>
<text xml:space="preserve" text-anchor="start" x="2844.55" y="-781" font-family="Helvetica,sans-Serif" font-style="italic" font-size="42.00" fill="#ffffff">TEXT</text>
<polygon fill="none" stroke="#334155" stroke-width="2" points="2662.15,-755.4 2662.15,-1264.2 2963.89,-1264.2 2963.89,-755.4 2662.15,-755.4"/>
</g>
<!-- Seminarraum -->
<g id="Seminarraum" class="node">
<title>Seminarraum</title>
<ellipse fill="none" stroke="black" stroke-width="0" cx="2152.77" cy="-258.8" rx="409.48" ry="258.8"/>
<polygon fill="#3b82f6" stroke="none" points="1865.22,-367.4 1865.22,-439.8 2440.31,-439.8 2440.31,-367.4 1865.22,-367.4"/>
<polygon fill="none" stroke="#334155" points="1865.22,-367.4 1865.22,-439.8 2440.31,-439.8 2440.31,-367.4 1865.22,-367.4"/>
<text xml:space="preserve" text-anchor="start" x="2018.54" y="-392" font-family="Helvetica,sans-Serif" font-weight="bold" font-size="42.00" fill="#ffffff">Seminarraum</text>
<polygon fill="#334155" stroke="none" points="1865.22,-295 1865.22,-367.4 2440.31,-367.4 2440.31,-295 1865.22,-295"/>
<polygon fill="none" stroke="#334155" points="1865.22,-295 1865.22,-367.4 2440.31,-367.4 2440.31,-295 1865.22,-295"/>
<text xml:space="preserve" text-anchor="start" x="1876.22" y="-319.6" font-family="Helvetica,sans-Serif" font-weight="bold" font-size="42.00" fill="#ffffff">id</text>
<text xml:space="preserve" text-anchor="start" x="1913.54" y="-319.6" font-family="Helvetica,sans-Serif" font-weight="bold" font-size="42.00" fill="transparent"> &#160;&#160;&#160;&#160;&#160;&#160;&#160;&#160;&#160;&#160;&#160;&#160;</text>
<text xml:space="preserve" text-anchor="start" x="2242.63" y="-319.6" font-family="Helvetica,sans-Serif" font-style="italic" font-size="42.00" fill="#ffffff">INTEGER</text>
<polygon fill="#334155" stroke="none" points="1865.22,-222.6 1865.22,-295 2440.31,-295 2440.31,-222.6 1865.22,-222.6"/>
<polygon fill="none" stroke="#334155" points="1865.22,-222.6 1865.22,-295 2440.31,-295 2440.31,-222.6 1865.22,-222.6"/>
<text xml:space="preserve" text-anchor="start" x="1876.22" y="-247.2" font-family="Helvetica,sans-Serif" font-size="42.00" fill="#ffffff">name</text>
<text xml:space="preserve" text-anchor="start" x="1981.28" y="-247.2" font-family="Helvetica,sans-Serif" font-size="42.00" fill="transparent"> &#160;&#160;&#160;&#160;&#160;&#160;&#160;&#160;&#160;&#160;</text>
<text xml:space="preserve" text-anchor="start" x="2321.98" y="-247.2" font-family="Helvetica,sans-Serif" font-style="italic" font-size="42.00" fill="#ffffff">TEXT</text>
<polygon fill="#334155" stroke="none" points="1865.22,-150.2 1865.22,-222.6 2440.31,-222.6 2440.31,-150.2 1865.22,-150.2"/>
<polygon fill="none" stroke="#334155" points="1865.22,-150.2 1865.22,-222.6 2440.31,-222.6 2440.31,-150.2 1865.22,-150.2"/>
<text xml:space="preserve" text-anchor="start" x="1876.22" y="-174.8" font-family="Helvetica,sans-Serif" font-size="42.00" fill="#ffffff">anzahlPlaetze</text>
<text xml:space="preserve" text-anchor="start" x="2140.07" y="-174.8" font-family="Helvetica,sans-Serif" font-size="42.00" fill="transparent"> &#160;</text>
<text xml:space="preserve" text-anchor="start" x="2242.63" y="-174.8" font-family="Helvetica,sans-Serif" font-style="italic" font-size="42.00" fill="#ffffff">INTEGER</text>
<polygon fill="#334155" stroke="none" points="1865.22,-77.8 1865.22,-150.2 2440.31,-150.2 2440.31,-77.8 1865.22,-77.8"/>
<polygon fill="none" stroke="#334155" points="1865.22,-77.8 1865.22,-150.2 2440.31,-150.2 2440.31,-77.8 1865.22,-77.8"/>
<text xml:space="preserve" text-anchor="start" x="1876.22" y="-102.4" font-family="Helvetica,sans-Serif" font-style="italic" font-size="42.00" fill="#BEEAFF" font-weight="bold"> &#160;&#160;&#160;name (INDEX, UNIQUE) &#160;&#160;&#160;</text>
<polygon fill="none" stroke="#334155" stroke-width="2" points="1864.22,-76.8 1864.22,-440.8 2441.31,-440.8 2441.31,-76.8 1864.22,-76.8"/>
</g>
<!-- Student -->
<g id="Student" class="node">
<title>Student</title>
<ellipse fill="none" stroke="black" stroke-width="0" cx="1289.46" cy="-1514.8" rx="409.58" ry="156.41"/>
<polygon fill="#3b82f6" stroke="none" points="1001.84,-1551 1001.84,-1623.4 1577.08,-1623.4 1577.08,-1551 1001.84,-1551"/>
<polygon fill="none" stroke="#334155" points="1001.84,-1551 1001.84,-1623.4 1577.08,-1623.4 1577.08,-1551 1001.84,-1551"/>
<text xml:space="preserve" text-anchor="start" x="1211.31" y="-1575.6" font-family="Helvetica,sans-Serif" font-weight="bold" font-size="42.00" fill="#ffffff">Student</text>
<polygon fill="#334155" stroke="none" points="1001.84,-1478.6 1001.84,-1551 1577.08,-1551 1577.08,-1478.6 1001.84,-1478.6"/>
<polygon fill="none" stroke="#334155" points="1001.84,-1478.6 1001.84,-1551 1577.08,-1551 1577.08,-1478.6 1001.84,-1478.6"/>
<text xml:space="preserve" text-anchor="start" x="1012.84" y="-1503.2" font-family="Helvetica,sans-Serif" font-weight="bold" font-size="42.00" fill="#ffffff">persNr</text>
<text xml:space="preserve" text-anchor="start" x="1148.24" y="-1503.2" font-family="Helvetica,sans-Serif" font-weight="bold" font-size="42.00" fill="transparent"> &#160;&#160;&#160;&#160;&#160;&#160;&#160;&#160;&#160;&#160;&#160;&#160;&#160;</text>
<text xml:space="preserve" text-anchor="start" x="1458.74" y="-1503.2" font-family="Helvetica,sans-Serif" font-style="italic" font-size="42.00" fill="#ffffff">TEXT</text>
<polygon fill="#334155" stroke="none" points="1001.84,-1406.2 1001.84,-1478.6 1577.08,-1478.6 1577.08,-1406.2 1001.84,-1406.2"/>
<polygon fill="none" stroke="#334155" points="1001.84,-1406.2 1001.84,-1478.6 1577.08,-1478.6 1577.08,-1406.2 1001.84,-1406.2"/>
<text xml:space="preserve" text-anchor="start" x="1012.84" y="-1430.8" font-family="Helvetica,sans-Serif" font-size="42.00" fill="#ffffff">nachteilsausgleich</text>
<text xml:space="preserve" text-anchor="start" x="1356.06" y="-1430.8" font-family="Helvetica,sans-Serif" font-size="42.00" fill="transparent"> &#160;</text>
<text xml:space="preserve" text-anchor="start" x="1379.4" y="-1430.8" font-family="Helvetica,sans-Serif" font-style="italic" font-size="42.00" fill="#ffffff">INTEGER</text>
<polygon fill="none" stroke="#334155" stroke-width="2" points="1000.84,-1405.2 1000.84,-1624.4 1578.08,-1624.4 1578.08,-1405.2 1000.84,-1405.2"/>
</g>
<!-- Student&#45;&gt;Person -->
<g id="edge1" class="edge">
<title>Student:f11-&gt;Person:f1</title>
<path fill="none" stroke="#ffffff" stroke-width="4" d="M1578.08,-1514.8C1660.25,-1514.8 1663.33,-1578.85 1743.28,-1597.8 1920.37,-1639.79 2420.11,-1711.46 2562.25,-1597.8 2712.86,-1477.36 2482.72,-1182.7 2637.66,-1156.47"/>
<polygon fill="#29235c" stroke="#ffffff" stroke-width="4" points="2657.29,-1154.97 2638.04,-1165.47 2652.3,-1156.86 2637.47,-1157.99 2637.35,-1156.5 2637.24,-1155 2652.07,-1153.87 2636.67,-1147.52 2657.29,-1154.97"/>
<text xml:space="preserve" text-anchor="middle" x="2631.65" y="-1156.17" font-family="Helvetica,sans-Serif" font-size="52.00" fill="#ffffff">1</text>
<text xml:space="preserve" text-anchor="middle" x="1610.89" y="-1487.01" font-family="Helvetica,sans-Serif" font-size="52.00" fill="#ffffff">1</text>
</g>
<!-- Dozent -->
<g id="Dozent" class="node">
<title>Dozent</title>
<ellipse fill="none" stroke="black" stroke-width="0" cx="2152.77" cy="-691.8" rx="274.19" ry="156.41"/>
<polygon fill="#3b82f6" stroke="none" points="1960.89,-728 1960.89,-800.4 2344.64,-800.4 2344.64,-728 1960.89,-728"/>
<polygon fill="none" stroke="#334155" points="1960.89,-728 1960.89,-800.4 2344.64,-800.4 2344.64,-728 1960.89,-728"/>
<text xml:space="preserve" text-anchor="start" x="2082.77" y="-752.6" font-family="Helvetica,sans-Serif" font-weight="bold" font-size="42.00" fill="#ffffff">Dozent</text>
<polygon fill="#334155" stroke="none" points="1960.89,-655.6 1960.89,-728 2344.64,-728 2344.64,-655.6 1960.89,-655.6"/>
<polygon fill="none" stroke="#334155" points="1960.89,-655.6 1960.89,-728 2344.64,-728 2344.64,-655.6 1960.89,-655.6"/>
<text xml:space="preserve" text-anchor="start" x="1971.89" y="-680.2" font-family="Helvetica,sans-Serif" font-weight="bold" font-size="42.00" fill="#ffffff">persNr</text>
<text xml:space="preserve" text-anchor="start" x="2107.28" y="-680.2" font-family="Helvetica,sans-Serif" font-weight="bold" font-size="42.00" fill="transparent"> &#160;&#160;</text>
<text xml:space="preserve" text-anchor="start" x="2226.31" y="-680.2" font-family="Helvetica,sans-Serif" font-style="italic" font-size="42.00" fill="#ffffff">TEXT</text>
<polygon fill="#334155" stroke="none" points="1960.89,-583.2 1960.89,-655.6 2344.64,-655.6 2344.64,-583.2 1960.89,-583.2"/>
<polygon fill="none" stroke="#334155" points="1960.89,-583.2 1960.89,-655.6 2344.64,-655.6 2344.64,-583.2 1960.89,-583.2"/>
<text xml:space="preserve" text-anchor="start" x="1971.89" y="-607.8" font-family="Helvetica,sans-Serif" font-size="42.00" fill="#ffffff">bueroNr</text>
<text xml:space="preserve" text-anchor="start" x="2123.62" y="-607.8" font-family="Helvetica,sans-Serif" font-size="42.00" fill="transparent"> &#160;</text>
<text xml:space="preserve" text-anchor="start" x="2146.96" y="-607.8" font-family="Helvetica,sans-Serif" font-style="italic" font-size="42.00" fill="#ffffff">INTEGER</text>
<polygon fill="none" stroke="#334155" stroke-width="2" points="1959.89,-582.2 1959.89,-801.4 2345.64,-801.4 2345.64,-582.2 1959.89,-582.2"/>
</g>
<!-- Dozent&#45;&gt;Person -->
<g id="edge2" class="edge">
<title>Dozent:f13-&gt;Person:f1</title>
<path fill="none" stroke="#ffffff" stroke-width="4" d="M2345.64,-691.8C2466.93,-691.8 2491.7,-759.14 2562.25,-857.8 2637.75,-963.39 2538.26,-1130.18 2637.41,-1152.18"/>
<polygon fill="#29235c" stroke="#ffffff" stroke-width="4" points="2657.3,-1154.13 2636.52,-1161.13 2652.06,-1155.12 2637.25,-1153.67 2637.4,-1152.18 2637.54,-1150.68 2652.35,-1152.13 2638.28,-1143.22 2657.3,-1154.13"/>
<text xml:space="preserve" text-anchor="middle" x="2629.14" y="-1150.63" font-family="Helvetica,sans-Serif" font-size="52.00" fill="#ffffff">1</text>
<text xml:space="preserve" text-anchor="middle" x="2378.18" y="-663.3" font-family="Helvetica,sans-Serif" font-size="52.00" fill="#ffffff">1</text>
</g>
<!-- Modul -->
<g id="Modul" class="node">
<title>Modul</title>
<ellipse fill="none" stroke="black" stroke-width="0" cx="2152.77" cy="-1227.8" rx="409.48" ry="361.19"/>
<polygon fill="#3b82f6" stroke="none" points="1865.22,-1408.8 1865.22,-1481.2 2440.31,-1481.2 2440.31,-1408.8 1865.22,-1408.8"/>
<polygon fill="none" stroke="#334155" points="1865.22,-1408.8 1865.22,-1481.2 2440.31,-1481.2 2440.31,-1408.8 1865.22,-1408.8"/>
<text xml:space="preserve" text-anchor="start" x="2090.95" y="-1433.4" font-family="Helvetica,sans-Serif" font-weight="bold" font-size="42.00" fill="#ffffff">Modul</text>
<polygon fill="#334155" stroke="none" points="1865.22,-1336.4 1865.22,-1408.8 2440.31,-1408.8 2440.31,-1336.4 1865.22,-1336.4"/>
<polygon fill="none" stroke="#334155" points="1865.22,-1336.4 1865.22,-1408.8 2440.31,-1408.8 2440.31,-1336.4 1865.22,-1336.4"/>
<text xml:space="preserve" text-anchor="start" x="1876.22" y="-1361" font-family="Helvetica,sans-Serif" font-weight="bold" font-size="42.00" fill="#ffffff">kuerzel</text>
<text xml:space="preserve" text-anchor="start" x="2020.96" y="-1361" font-family="Helvetica,sans-Serif" font-weight="bold" font-size="42.00" fill="transparent"> &#160;&#160;&#160;&#160;&#160;&#160;</text>
<text xml:space="preserve" text-anchor="start" x="2321.98" y="-1361" font-family="Helvetica,sans-Serif" font-style="italic" font-size="42.00" fill="#ffffff">TEXT</text>
<polygon fill="#334155" stroke="none" points="1865.22,-1264 1865.22,-1336.4 2440.31,-1336.4 2440.31,-1264 1865.22,-1264"/>
<polygon fill="none" stroke="#334155" points="1865.22,-1264 1865.22,-1336.4 2440.31,-1336.4 2440.31,-1264 1865.22,-1264"/>
<text xml:space="preserve" text-anchor="start" x="1876.22" y="-1288.6" font-family="Helvetica,sans-Serif" font-size="42.00" fill="#ffffff">name</text>
<text xml:space="preserve" text-anchor="start" x="1981.28" y="-1288.6" font-family="Helvetica,sans-Serif" font-size="42.00" fill="transparent"> &#160;&#160;&#160;&#160;&#160;&#160;&#160;&#160;&#160;</text>
<text xml:space="preserve" text-anchor="start" x="2321.98" y="-1288.6" font-family="Helvetica,sans-Serif" font-style="italic" font-size="42.00" fill="#ffffff">TEXT</text>
<polygon fill="#334155" stroke="none" points="1865.22,-1191.6 1865.22,-1264 2440.31,-1264 2440.31,-1191.6 1865.22,-1191.6"/>
<polygon fill="none" stroke="#334155" points="1865.22,-1191.6 1865.22,-1264 2440.31,-1264 2440.31,-1191.6 1865.22,-1191.6"/>
<text xml:space="preserve" text-anchor="start" x="1876.22" y="-1216.2" font-family="Helvetica,sans-Serif" font-size="42.00" fill="#ffffff">kurstage</text>
<text xml:space="preserve" text-anchor="start" x="2037.31" y="-1216.2" font-family="Helvetica,sans-Serif" font-size="42.00" fill="transparent"> &#160;&#160;&#160;&#160;&#160;</text>
<text xml:space="preserve" text-anchor="start" x="2242.63" y="-1216.2" font-family="Helvetica,sans-Serif" font-style="italic" font-size="42.00" fill="#ffffff">INTEGER</text>
<polygon fill="#334155" stroke="none" points="1865.22,-1119.2 1865.22,-1191.6 2440.31,-1191.6 2440.31,-1119.2 1865.22,-1119.2"/>
<polygon fill="none" stroke="#334155" points="1865.22,-1119.2 1865.22,-1191.6 2440.31,-1191.6 2440.31,-1119.2 1865.22,-1119.2"/>
<text xml:space="preserve" text-anchor="start" x="1876.22" y="-1143.8" font-family="Helvetica,sans-Serif" font-size="42.00" fill="#ffffff">preis</text>
<text xml:space="preserve" text-anchor="start" x="1967.25" y="-1143.8" font-family="Helvetica,sans-Serif" font-size="42.00" fill="transparent"> &#160;&#160;&#160;&#160;&#160;&#160;&#160;&#160;</text>
<text xml:space="preserve" text-anchor="start" x="2242.63" y="-1143.8" font-family="Helvetica,sans-Serif" font-style="italic" font-size="42.00" fill="#ffffff">INTEGER</text>
<polygon fill="#334155" stroke="none" points="1865.22,-1046.8 1865.22,-1119.2 2440.31,-1119.2 2440.31,-1046.8 1865.22,-1046.8"/>
<polygon fill="none" stroke="#334155" points="1865.22,-1046.8 1865.22,-1119.2 2440.31,-1119.2 2440.31,-1046.8 1865.22,-1046.8"/>
<text xml:space="preserve" text-anchor="start" x="1876.22" y="-1071.4" font-family="Helvetica,sans-Serif" font-size="42.00" fill="#ffffff">beschreibung</text>
<text xml:space="preserve" text-anchor="start" x="2128.4" y="-1071.4" font-family="Helvetica,sans-Serif" font-size="42.00" fill="transparent"> &#160;</text>
<text xml:space="preserve" text-anchor="start" x="2321.98" y="-1071.4" font-family="Helvetica,sans-Serif" font-style="italic" font-size="42.00" fill="#ffffff">TEXT</text>
<polygon fill="#334155" stroke="none" points="1865.22,-974.4 1865.22,-1046.8 2440.31,-1046.8 2440.31,-974.4 1865.22,-974.4"/>
<polygon fill="none" stroke="#334155" points="1865.22,-974.4 1865.22,-1046.8 2440.31,-1046.8 2440.31,-974.4 1865.22,-974.4"/>
<text xml:space="preserve" text-anchor="start" x="1876.22" y="-999" font-family="Helvetica,sans-Serif" font-style="italic" font-size="42.00" fill="#BEEAFF" font-weight="bold"> &#160;&#160;&#160;name (INDEX, UNIQUE) &#160;&#160;&#160;</text>
<polygon fill="none" stroke="#334155" stroke-width="2" points="1864.22,-973.4 1864.22,-1482.2 2441.31,-1482.2 2441.31,-973.4 1864.22,-973.4"/>
</g>
<!-- Kursdurchfuehrung -->
<g id="Kursdurchfuehrung" class="node">
<title>Kursdurchfuehrung</title>
<ellipse fill="none" stroke="black" stroke-width="0" cx="1289.46" cy="-828.8" rx="417.82" ry="310"/>
<polygon fill="#3b82f6" stroke="none" points="996.02,-973.6 996.02,-1046 1582.91,-1046 1582.91,-973.6 996.02,-973.6"/>
<polygon fill="none" stroke="#334155" points="996.02,-973.6 996.02,-1046 1582.91,-1046 1582.91,-973.6 996.02,-973.6"/>
<text xml:space="preserve" text-anchor="start" x="1092.3" y="-998.2" font-family="Helvetica,sans-Serif" font-weight="bold" font-size="42.00" fill="#ffffff">Kursdurchfuehrung</text>
<polygon fill="#334155" stroke="none" points="996.02,-901.2 996.02,-973.6 1582.91,-973.6 1582.91,-901.2 996.02,-901.2"/>
<polygon fill="none" stroke="#334155" points="996.02,-901.2 996.02,-973.6 1582.91,-973.6 1582.91,-901.2 996.02,-901.2"/>
<text xml:space="preserve" text-anchor="start" x="1007.02" y="-925.8" font-family="Helvetica,sans-Serif" font-weight="bold" font-size="42.00" fill="#ffffff">modulkuerzel</text>
<text xml:space="preserve" text-anchor="start" x="1277.74" y="-925.8" font-family="Helvetica,sans-Serif" font-weight="bold" font-size="42.00" fill="transparent"> &#160;</text>
<text xml:space="preserve" text-anchor="start" x="1464.57" y="-925.8" font-family="Helvetica,sans-Serif" font-style="italic" font-size="42.00" fill="#ffffff">TEXT</text>
<polygon fill="#334155" stroke="none" points="996.02,-828.8 996.02,-901.2 1582.91,-901.2 1582.91,-828.8 996.02,-828.8"/>
<polygon fill="none" stroke="#334155" points="996.02,-828.8 996.02,-901.2 1582.91,-901.2 1582.91,-828.8 996.02,-828.8"/>
<text xml:space="preserve" text-anchor="start" x="1007.02" y="-853.4" font-family="Helvetica,sans-Serif" font-weight="bold" font-size="42.00" fill="#ffffff">startdatum</text>
<text xml:space="preserve" text-anchor="start" x="1224.05" y="-853.4" font-family="Helvetica,sans-Serif" font-weight="bold" font-size="42.00" fill="transparent"> &#160;&#160;&#160;</text>
<text xml:space="preserve" text-anchor="start" x="1464.57" y="-853.4" font-family="Helvetica,sans-Serif" font-style="italic" font-size="42.00" fill="#ffffff">TEXT</text>
<polygon fill="#334155" stroke="none" points="996.02,-756.4 996.02,-828.8 1582.91,-828.8 1582.91,-756.4 996.02,-756.4"/>
<polygon fill="none" stroke="#334155" points="996.02,-756.4 996.02,-828.8 1582.91,-828.8 1582.91,-756.4 996.02,-756.4"/>
<text xml:space="preserve" text-anchor="start" x="1007.02" y="-781" font-family="Helvetica,sans-Serif" font-size="42.00" fill="#ffffff">dozentNr</text>
<text xml:space="preserve" text-anchor="start" x="1177.44" y="-781" font-family="Helvetica,sans-Serif" font-size="42.00" fill="transparent"> &#160;&#160;&#160;&#160;&#160;</text>
<text xml:space="preserve" text-anchor="start" x="1464.57" y="-781" font-family="Helvetica,sans-Serif" font-style="italic" font-size="42.00" fill="#ffffff">TEXT</text>
<polygon fill="#334155" stroke="none" points="996.02,-684 996.02,-756.4 1582.91,-756.4 1582.91,-684 996.02,-684"/>
<polygon fill="none" stroke="#334155" points="996.02,-684 996.02,-756.4 1582.91,-756.4 1582.91,-684 996.02,-684"/>
<text xml:space="preserve" text-anchor="start" x="1007.02" y="-708.6" font-family="Helvetica,sans-Serif" font-size="42.00" fill="#ffffff">raumID</text>
<text xml:space="preserve" text-anchor="start" x="1144.71" y="-708.6" font-family="Helvetica,sans-Serif" font-size="42.00" fill="transparent"> &#160;&#160;&#160;&#160;&#160;&#160;&#160;</text>
<text xml:space="preserve" text-anchor="start" x="1385.22" y="-708.6" font-family="Helvetica,sans-Serif" font-style="italic" font-size="42.00" fill="#ffffff">INTEGER</text>
<polygon fill="#334155" stroke="none" points="996.02,-611.6 996.02,-684 1582.91,-684 1582.91,-611.6 996.02,-611.6"/>
<polygon fill="none" stroke="#334155" points="996.02,-611.6 996.02,-684 1582.91,-684 1582.91,-611.6 996.02,-611.6"/>
<text xml:space="preserve" text-anchor="start" x="1007.02" y="-636.2" font-family="Helvetica,sans-Serif" font-style="italic" font-size="42.00" fill="#BEEAFF" font-weight="bold"> &#160;&#160;&#160;modulkuerzel, startdatum &#160;&#160;&#160;</text>
<polygon fill="none" stroke="#334155" stroke-width="2" points="995.02,-610.6 995.02,-1047 1583.91,-1047 1583.91,-610.6 995.02,-610.6"/>
</g>
<!-- Kursdurchfuehrung&#45;&gt;Seminarraum -->
<g id="edge3" class="edge">
<title>Kursdurchfuehrung:f24-&gt;Seminarraum:f7</title>
<path fill="none" stroke="#ffffff" stroke-width="4" d="M1583.91,-720.2C1788.16,-720.2 1662.61,-362.82 1839.49,-333.16"/>
<polygon fill="#29235c" stroke="#ffffff" stroke-width="4" points="1859.36,-331.59 1840.13,-342.13 1854.37,-333.48 1839.54,-334.66 1839.42,-333.16 1839.3,-331.67 1854.13,-330.49 1838.71,-324.19 1859.36,-331.59"/>
<text xml:space="preserve" text-anchor="middle" x="1833.76" y="-332.85" font-family="Helvetica,sans-Serif" font-size="52.00" fill="#ffffff">1</text>
<text xml:space="preserve" text-anchor="middle" x="1612.25" y="-684.07" font-family="Helvetica,sans-Serif" font-size="52.00" fill="#ffffff">∞</text>
</g>
<!-- Kursdurchfuehrung&#45;&gt;Dozent -->
<g id="edge4" class="edge">
<title>Kursdurchfuehrung:f23-&gt;Dozent:f13</title>
<path fill="none" stroke="#ffffff" stroke-width="4" d="M1583.91,-792.6C1748.29,-792.6 1783.54,-701.59 1935.07,-692.53"/>
<polygon fill="#29235c" stroke="#ffffff" stroke-width="4" points="1955.01,-691.94 1935.29,-701.52 1949.93,-693.59 1935.07,-694.03 1935.02,-692.53 1934.98,-691.03 1949.85,-690.59 1934.76,-683.53 1955.01,-691.94"/>
<text xml:space="preserve" text-anchor="middle" x="1928.61" y="-691.91" font-family="Helvetica,sans-Serif" font-size="52.00" fill="#ffffff">1</text>
<text xml:space="preserve" text-anchor="middle" x="1614.75" y="-760.46" font-family="Helvetica,sans-Serif" font-size="52.00" fill="#ffffff">∞</text>
</g>
<!-- Kursdurchfuehrung&#45;&gt;Modul -->
<g id="edge5" class="edge">
<title>Kursdurchfuehrung:f21-&gt;Modul:f15</title>
<path fill="none" stroke="#ffffff" stroke-width="4" d="M1583.91,-937.4C1805.22,-937.4 1647.25,-1340.08 1839.67,-1370.76"/>
<polygon fill="#29235c" stroke="#ffffff" stroke-width="4" points="1859.36,-1372.24 1838.74,-1379.71 1854.13,-1373.35 1839.3,-1372.23 1839.41,-1370.74 1839.53,-1369.24 1854.36,-1370.36 1840.09,-1361.76 1859.36,-1372.24"/>
<text xml:space="preserve" text-anchor="middle" x="1831.48" y="-1369.37" font-family="Helvetica,sans-Serif" font-size="52.00" fill="#ffffff">1</text>
<text xml:space="preserve" text-anchor="middle" x="1617.93" y="-913.61" font-family="Helvetica,sans-Serif" font-size="52.00" fill="#ffffff">∞</text>
</g>
<!-- Teilnehmer -->
<g id="Teilnehmer" class="node">
<title>Teilnehmer</title>
<ellipse fill="none" stroke="black" stroke-width="0" cx="417.82" cy="-1117.8" rx="417.82" ry="258.8"/>
<polygon fill="#3b82f6" stroke="none" points="124.38,-1226.4 124.38,-1298.8 711.26,-1298.8 711.26,-1226.4 124.38,-1226.4"/>
<polygon fill="none" stroke="#334155" points="124.38,-1226.4 124.38,-1298.8 711.26,-1298.8 711.26,-1226.4 124.38,-1226.4"/>
<text xml:space="preserve" text-anchor="start" x="305.79" y="-1251" font-family="Helvetica,sans-Serif" font-weight="bold" font-size="42.00" fill="#ffffff">Teilnehmer</text>
<polygon fill="#334155" stroke="none" points="124.38,-1154 124.38,-1226.4 711.26,-1226.4 711.26,-1154 124.38,-1154"/>
<polygon fill="none" stroke="#334155" points="124.38,-1154 124.38,-1226.4 711.26,-1226.4 711.26,-1154 124.38,-1154"/>
<text xml:space="preserve" text-anchor="start" x="135.38" y="-1178.6" font-family="Helvetica,sans-Serif" font-weight="bold" font-size="42.00" fill="#ffffff">studNr</text>
<text xml:space="preserve" text-anchor="start" x="270.71" y="-1178.6" font-family="Helvetica,sans-Serif" font-weight="bold" font-size="42.00" fill="transparent"> &#160;&#160;&#160;&#160;&#160;&#160;&#160;</text>
<text xml:space="preserve" text-anchor="start" x="592.93" y="-1178.6" font-family="Helvetica,sans-Serif" font-style="italic" font-size="42.00" fill="#ffffff">TEXT</text>
<polygon fill="#334155" stroke="none" points="124.38,-1081.6 124.38,-1154 711.26,-1154 711.26,-1081.6 124.38,-1081.6"/>
<polygon fill="none" stroke="#334155" points="124.38,-1081.6 124.38,-1154 711.26,-1154 711.26,-1081.6 124.38,-1081.6"/>
<text xml:space="preserve" text-anchor="start" x="135.38" y="-1106.2" font-family="Helvetica,sans-Serif" font-weight="bold" font-size="42.00" fill="#ffffff">modulkuerzel</text>
<text xml:space="preserve" text-anchor="start" x="406.1" y="-1106.2" font-family="Helvetica,sans-Serif" font-weight="bold" font-size="42.00" fill="transparent"> &#160;</text>
<text xml:space="preserve" text-anchor="start" x="592.93" y="-1106.2" font-family="Helvetica,sans-Serif" font-style="italic" font-size="42.00" fill="#ffffff">TEXT</text>
<polygon fill="#334155" stroke="none" points="124.38,-1009.2 124.38,-1081.6 711.26,-1081.6 711.26,-1009.2 124.38,-1009.2"/>
<polygon fill="none" stroke="#334155" points="124.38,-1009.2 124.38,-1081.6 711.26,-1081.6 711.26,-1009.2 124.38,-1009.2"/>
<text xml:space="preserve" text-anchor="start" x="135.38" y="-1033.8" font-family="Helvetica,sans-Serif" font-weight="bold" font-size="42.00" fill="#ffffff">startdatum</text>
<text xml:space="preserve" text-anchor="start" x="352.41" y="-1033.8" font-family="Helvetica,sans-Serif" font-weight="bold" font-size="42.00" fill="transparent"> &#160;&#160;&#160;</text>
<text xml:space="preserve" text-anchor="start" x="592.93" y="-1033.8" font-family="Helvetica,sans-Serif" font-style="italic" font-size="42.00" fill="#ffffff">TEXT</text>
<polygon fill="#334155" stroke="none" points="124.38,-936.8 124.38,-1009.2 711.26,-1009.2 711.26,-936.8 124.38,-936.8"/>
<polygon fill="none" stroke="#334155" points="124.38,-936.8 124.38,-1009.2 711.26,-1009.2 711.26,-936.8 124.38,-936.8"/>
<text xml:space="preserve" text-anchor="start" x="135.38" y="-961.4" font-family="Helvetica,sans-Serif" font-style="italic" font-size="42.00" fill="#BEEAFF" font-weight="bold"> &#160;&#160;&#160;modulkuerzel, startdatum &#160;&#160;&#160;</text>
<polygon fill="none" stroke="#334155" stroke-width="2" points="123.38,-935.8 123.38,-1299.8 712.26,-1299.8 712.26,-935.8 123.38,-935.8"/>
</g>
<!-- Teilnehmer&#45;&gt;Student -->
<g id="edge6" class="edge">
<title>Teilnehmer:f26-&gt;Student:f11</title>
<path fill="none" stroke="#ffffff" stroke-width="4" d="M712.26,-1190.2C896.63,-1190.2 815.98,-1486.29 976.53,-1512.89"/>
<polygon fill="#29235c" stroke="#ffffff" stroke-width="4" points="995.98,-1514.42 975.34,-1521.83 990.76,-1515.51 975.93,-1514.35 976.04,-1512.86 976.16,-1511.36 990.99,-1512.52 976.75,-1503.88 995.98,-1514.42"/>
<text xml:space="preserve" text-anchor="middle" x="968.06" y="-1511.47" font-family="Helvetica,sans-Serif" font-size="52.00" fill="#ffffff">1</text>
<text xml:space="preserve" text-anchor="middle" x="746.05" y="-1165.46" font-family="Helvetica,sans-Serif" font-size="52.00" fill="#ffffff">∞</text>
</g>
<!-- Teilnehmer&#45;&gt;Kursdurchfuehrung -->
<g id="edge7" class="edge">
<title>Teilnehmer:f29-&gt;Kursdurchfuehrung:f25</title>
<path fill="none" stroke="#ffffff" stroke-width="4" d="M712.26,-973C895,-973 812.08,-676.97 970.43,-649.79"/>
<polygon fill="#29235c" stroke="#ffffff" stroke-width="4" points="990.16,-648.19 970.95,-658.78 985.17,-650.1 970.35,-651.31 970.23,-649.81 970.1,-648.32 984.93,-647.11 969.5,-640.84 990.16,-648.19"/>
<text xml:space="preserve" text-anchor="middle" x="964.6" y="-649.51" font-family="Helvetica,sans-Serif" font-size="52.00" fill="#ffffff">1</text>
<text xml:space="preserve" text-anchor="middle" x="740.95" y="-937.35" font-family="Helvetica,sans-Serif" font-size="52.00" fill="#ffffff">∞</text>
</g>
</g>
</svg>